<svg width="24" height="24" viewBox="0 0 24 24" fill="none" xmlns="http://www.w3.org/2000/svg">
<path d="M11 9V6H8V4H11V1H13V4H16V6H13V9H11ZM7 22C6.45 22 5.979 21.804 5.587 21.412C5.195 21.02 4.99933 20.5493 5 20C5 19.45 5.196 18.979 5.588 18.587C5.98 18.195 6.45067 17.9993 7 18C7.55 18 8.021 18.196 8.413 18.588C8.805 18.98 9.00067 19.4507 9 20C9 20.55 8.804 21.021 8.412 21.413C8.02 21.805 7.54933 22.0007 7 22ZM17 22C16.45 22 15.979 21.804 15.587 21.412C15.195 21.02 14.9993 20.5493 15 20C15 19.45 15.196 18.979 15.588 18.587C15.98 18.195 16.4507 17.9993 17 18C17.55 18 18.021 18.196 18.413 18.588C18.805 18.98 19.0007 19.4507 19 20C19 20.55 18.804 21.021 18.412 21.413C18.02 21.805 17.5493 22.0007 17 22ZM7 17C6.25 17 5.675 16.6707 5.275 16.012C4.875 15.3533 4.86667 14.6993 5.25 14.05L6.6 11.6L3 4H1V2H4.275L8.525 11H15.55L19.425 4L21.175 4.95L17.3 11.95C17.1167 12.2833 16.875 12.5417 16.575 12.725C16.275 12.9083 15.9333 13 15.55 13H8.1L7 15H19V17H7Z" fill="#F8F8F8"/>
</svg>
